<svg width="101" height="81" viewBox="0 0 101 81" fill="none" xmlns="http://www.w3.org/2000/svg">
<path d="M97.5693 31.486L84.8422 20.1369C84.2474 19.604 83.5451 19.1943 82.7788 18.9334C82.0126 18.6725 81.1988 18.5658 80.3879 18.6201C79.3743 17.1751 78.171 15.862 76.8079 14.7134L80.2896 12.1038C80.4741 11.9656 80.6228 11.7881 80.7238 11.5853C80.8249 11.3824 80.8756 11.1597 80.8719 10.9348C80.8683 10.7098 80.8104 10.4888 80.7028 10.2891C80.5952 10.0893 80.4409 9.91636 80.252 9.78378C74.1239 5.47826 66.7202 5.28525 63.0298 5.52013L63.8242 2.74454C63.8864 2.52702 63.8951 2.29856 63.8497 2.07724C63.8042 1.85592 63.7059 1.64781 63.5624 1.46939C63.4202 1.28958 63.2357 1.14475 63.0241 1.04675C62.8125 0.948749 62.5798 0.900376 62.345 0.905594C56.0314 0.997853 52.1098 3.55171 50.2914 5.11851C48.4733 3.55205 44.5517 0.997853 38.2374 0.905594C38.0029 0.90223 37.7708 0.951423 37.5596 1.04928C37.3483 1.14713 37.1636 1.29096 37.02 1.46937C36.8765 1.64779 36.7781 1.8559 36.7327 2.07723C36.6873 2.29855 36.696 2.52702 36.7582 2.74454L37.5526 5.52013C33.8588 5.28491 26.4581 5.47863 20.3304 9.78378C20.1416 9.91642 19.9873 10.0894 19.8798 10.2891C19.7723 10.4889 19.7145 10.7099 19.7108 10.9348C19.7072 11.1597 19.7578 11.3823 19.8588 11.5852C19.9598 11.788 20.1084 11.9656 20.2928 12.1038L23.7748 14.7134C22.4116 15.8621 21.2082 17.1753 20.1945 18.6204C19.3837 18.5661 18.5699 18.6727 17.8036 18.9336C17.0374 19.1944 16.335 19.604 15.7402 20.1368L2.99975 31.4976C-2.77318 36.7706 1.52903 46.6887 1.7149 47.1081C1.80765 47.3173 1.95016 47.5027 2.13095 47.6493C2.31175 47.7958 2.52578 47.8996 2.75582 47.9521C2.98587 48.0045 3.22552 48.0044 3.45548 47.9515C3.68543 47.8986 3.89929 47.7946 4.07983 47.6477L5.5687 46.4362C5.8025 48.6665 6.5411 51.6674 8.64249 54.2426C8.76591 54.3939 8.91935 54.5202 9.09391 54.6141C9.26846 54.7079 9.46066 54.7675 9.65934 54.7893C9.85802 54.8111 10.0592 54.7948 10.2513 54.7412C10.4433 54.6876 10.6224 54.5978 10.7781 54.4771L12.1187 53.4389C13.5665 55.7728 16.8548 60.2125 22.7902 64.2247C23.0033 67.7623 23.9407 71.2246 25.5487 74.4126C25.6389 74.596 25.7681 74.7592 25.9278 74.8916C26.0876 75.024 26.2744 75.1228 26.4763 75.1815C26.6781 75.2402 26.8905 75.2576 27.0998 75.2326C27.3091 75.2075 27.5106 75.1406 27.6913 75.036L30.9244 73.168C31.488 75.715 32.6213 78.1135 34.2457 80.1966C34.4923 80.4984 34.8518 80.6954 35.2474 80.7456C35.643 80.7958 36.0433 80.6952 36.3628 80.4652L45.726 73.5599C48.7514 74.0241 51.8341 74.0247 54.8597 73.5616L64.2206 80.4652C64.5401 80.6952 64.9404 80.7959 65.336 80.7457C65.7316 80.6955 66.0912 80.4984 66.3378 80.1966C67.9621 78.1136 69.0953 75.7151 69.6586 73.168L72.8921 75.0364C73.0728 75.1409 73.2743 75.2077 73.4836 75.2327C73.6929 75.2577 73.9053 75.2403 74.1071 75.1816C74.3089 75.1228 74.4957 75.024 74.6555 74.8916C74.8153 74.7592 74.9444 74.596 75.0347 74.4127C76.6428 71.2244 77.5802 67.7618 77.7932 64.2239C83.7278 60.212 87.0158 55.7728 88.4635 53.439L89.8041 54.4771C89.9598 54.5979 90.1389 54.6876 90.331 54.7412C90.523 54.7948 90.7242 54.8112 90.9229 54.7894C91.1216 54.7676 91.3138 54.708 91.4883 54.6141C91.6629 54.5203 91.8163 54.394 91.9397 54.2426C94.0411 51.6678 94.7801 48.6666 95.0136 46.4366L96.5023 47.6479C96.6829 47.7948 96.8967 47.8989 97.1267 47.9518C97.3567 48.0046 97.5963 48.0048 97.8264 47.9523C98.0564 47.8998 98.2705 47.7961 98.4512 47.6495C98.632 47.5029 98.7745 47.3175 98.8673 47.1083C99.0533 46.6888 103.355 36.7708 97.5693 31.486ZM22.0965 21.1436C22.1978 21.03 22.2801 20.9017 22.3402 20.7636C24.4833 17.5096 26.8343 16.093 27.026 15.9816C27.2377 15.8609 27.4156 15.6924 27.5442 15.4905C27.6728 15.2887 27.7482 15.0596 27.7638 14.8234C27.7794 14.5871 27.7348 14.3507 27.6339 14.1348C27.5329 13.9189 27.3787 13.73 27.1845 13.5845L23.827 11.0683C30.8546 7.24389 39.2422 8.61343 39.3314 8.62832C39.5827 8.6719 39.8414 8.65347 40.0832 8.57477C40.3251 8.49606 40.5423 8.35965 40.7145 8.17828C40.8867 7.99691 41.0083 7.77649 41.0679 7.53764C41.1276 7.29878 41.1233 7.04928 41.0555 6.81245L40.2354 3.94648C46.2229 4.66033 48.9726 7.93614 49.0935 8.08374C49.2344 8.25879 49.415 8.4006 49.6215 8.49836C49.828 8.59612 50.0549 8.64726 50.2851 8.64787C50.515 8.64479 50.7415 8.5933 50.9486 8.497C51.1556 8.40071 51.3383 8.26195 51.4836 8.09048C51.6094 7.93648 54.3594 4.66026 60.3469 3.94641L59.5268 6.81247C59.459 7.04934 59.4547 7.29887 59.5144 7.53775C59.574 7.77664 59.6956 7.99707 59.8679 8.17845C60.0401 8.35983 60.2574 8.49623 60.4993 8.57491C60.7412 8.65359 60.9999 8.67197 61.2512 8.62835C61.3419 8.61245 69.7081 7.22477 76.7559 11.068L73.3982 13.5846C73.204 13.73 73.0498 13.9189 72.9488 14.1349C72.8478 14.3508 72.8032 14.5871 72.8189 14.8234C72.8345 15.0597 72.9099 15.2887 73.0385 15.4905C73.1671 15.6924 73.345 15.861 73.5567 15.9816C73.6482 16.0334 82.2268 21.0889 81.7836 34.7988C77.058 32.405 65.6438 27.4952 58.1663 31.5258C54.0836 33.7261 51.869 38.1489 51.5646 44.6768H49.018C48.7135 38.1489 46.499 33.7261 42.4163 31.5258C34.9363 27.4952 23.5221 32.4057 18.7977 34.7995C18.5892 28.5578 20.2275 24.1317 22.0965 21.1436ZM22.9104 60.6851C16.4849 55.823 13.9881 50.6724 13.9622 50.6179C13.8677 50.4151 13.7261 50.2358 13.5483 50.0939C13.3705 49.952 13.1612 49.8512 12.9366 49.7993C12.712 49.7475 12.478 49.7459 12.2526 49.7946C12.0272 49.8434 11.8165 49.9413 11.6366 50.0808L10.1661 51.2197C8.08208 47.6738 8.53723 43.5482 8.54202 43.5049C8.57771 43.2152 8.52197 42.9219 8.38204 42.6632C8.24211 42.4044 8.02448 42.1921 7.75744 42.054C7.49041 41.9159 7.18635 41.8582 6.88481 41.8886C6.58327 41.919 6.29823 42.036 6.06675 42.2244L3.81792 44.0541C3.00105 41.3247 2.0791 36.3461 5.06623 33.6177L17.7933 22.2686C17.9352 22.1441 18.0889 22.0327 18.2523 21.9356C16.492 25.6241 15.2797 30.6626 15.9405 37.3324C15.9651 37.5777 16.054 37.813 16.199 38.0162C16.3441 38.2194 16.5404 38.3838 16.7696 38.494C16.9988 38.6041 17.2533 38.6564 17.5093 38.6459C17.7653 38.6354 18.0143 38.5625 18.2329 38.434C18.2702 38.412 19.2454 37.8457 20.8048 37.0833V45.8273C20.7966 49.9147 21.7164 53.9545 23.4999 57.6644C23.2244 58.6555 23.0274 59.6653 22.9104 60.6851ZM25.1215 53.7057C24.2587 51.1622 23.8214 48.5029 23.826 45.8274V35.7169C28.8506 33.6212 36.152 31.4794 40.9427 34.0633C44.0557 35.7424 45.7517 39.3627 46.0011 44.8251C45.3601 45.0412 44.8339 45.4922 44.5372 46.08C44.4696 46.2169 44.415 46.3593 44.3739 46.5056C39.108 45.8698 31.8935 45.874 28.1054 49.7082C26.9269 50.9043 25.923 52.2492 25.1215 53.7057ZM44.6873 70.6635L35.7901 77.2252C34.568 75.2459 33.8166 73.0308 33.5899 70.739C33.578 70.4877 33.4985 70.2435 33.3592 70.0306C33.2198 69.8176 33.0253 69.6431 32.7948 69.5242C32.5643 69.4053 32.3057 69.3459 32.0442 69.352C31.7827 69.3581 31.5273 69.4294 31.3031 69.559L27.6068 71.6945C24.4541 64.1785 25.4332 56.6325 30.2952 51.7108C33.386 48.5809 40.4552 48.822 45.5454 49.5986L48.2461 52.921C48.3998 53.1045 48.5799 53.2662 48.7809 53.401L48.7812 62.6815C48.7764 64.2242 48.405 65.7453 47.6955 67.1288C46.9859 68.5122 45.957 69.7213 44.6873 70.6635ZM48.6977 70.9492C49.314 70.2285 49.8484 69.4464 50.2917 68.6163C50.7358 69.4478 51.2712 70.2311 51.8889 70.9527C50.826 71.0118 49.7604 71.0107 48.6977 70.9492ZM72.9766 71.6945L69.28 69.5586C69.0559 69.4297 68.8009 69.3589 68.5399 69.3529C68.279 69.347 68.0208 69.4061 67.7906 69.5246C67.5604 69.6431 67.3661 69.8169 67.2264 70.0291C67.0867 70.2412 67.0065 70.4846 66.9935 70.7354C66.7673 73.0285 66.0158 75.2449 64.793 77.2252L55.8961 70.6635C54.6264 69.7213 53.5975 68.5123 52.888 67.1288C52.1784 65.7454 51.807 64.2242 51.8023 62.6815L51.8025 53.4005C52.0031 53.2657 52.1828 53.1043 52.3362 52.921L55.0365 49.5986C60.1268 48.822 67.1965 48.5809 70.2882 51.7108C75.1503 56.6325 76.1293 64.1785 72.9766 71.6945ZM76.7567 45.8274C76.7591 48.4993 76.3199 51.1545 75.4558 53.6937C74.4857 51.9426 73.2138 50.1788 71.5935 48.9268C70.2051 47.9038 68.6044 47.18 66.8997 46.8043C63.4291 45.9629 59.7336 46.08 56.2084 46.5056C56.1673 46.3594 56.1127 46.2169 56.0451 46.0801C55.7484 45.4924 55.2224 45.0414 54.5816 44.8252C54.831 39.3628 56.5269 35.7422 59.64 34.0633C64.4314 31.4783 71.7324 33.6203 76.7567 35.7164V45.8274ZM96.7639 44.0538L94.5154 42.2244C94.284 42.0367 93.9993 41.9202 93.6982 41.8899C93.3972 41.8596 93.0936 41.917 92.8268 42.0546C92.5601 42.1923 92.3424 42.4038 92.202 42.6618C92.0616 42.9198 92.005 43.2124 92.0394 43.5017C92.0449 43.5479 92.5007 47.6738 90.4164 51.2197L88.9457 50.0808C88.7658 49.9414 88.555 49.8435 88.3297 49.7947C88.1043 49.7459 87.8703 49.7476 87.6457 49.7994C87.4211 49.8513 87.2118 49.9521 87.034 50.094C86.8562 50.2359 86.7146 50.4152 86.6201 50.618C86.5935 50.6747 84.1346 55.8032 77.6731 60.6856C77.556 59.6653 77.3587 58.6549 77.083 57.6633C78.8661 53.9538 79.7858 49.9144 79.7778 45.8275V37.0831C81.3369 37.8456 82.3118 38.4121 82.3493 38.4341C82.5679 38.5626 82.8168 38.6355 83.0728 38.646C83.3288 38.6565 83.5833 38.6042 83.8125 38.4941C84.0416 38.3839 84.2379 38.2195 84.3829 38.0163C84.5279 37.8131 84.6168 37.5778 84.6412 37.3324C85.3023 30.6628 84.0902 25.6243 82.33 21.9357C82.4933 22.0328 82.6469 22.1443 82.7889 22.2686L95.5026 33.6059C98.4994 36.3429 97.5796 41.3243 96.7639 44.0538Z" fill="#5063BF"/>
<path d="M35.3452 44.8004C36.2462 44.7994 37.1101 44.4546 37.7473 43.8416C38.3844 43.2286 38.7428 42.3975 38.7439 41.5306V39.2283C38.7439 38.361 38.3858 37.5293 37.7484 36.9161C37.111 36.3029 36.2466 35.9584 35.3452 35.9584C34.4438 35.9584 33.5793 36.3029 32.9419 36.9161C32.3045 37.5293 31.9465 38.361 31.9465 39.2283V41.5306C31.9475 42.3975 32.3059 43.2286 32.9431 43.8416C33.5802 44.4546 34.4441 44.7994 35.3452 44.8004Z" fill="#5063BF"/>
<path d="M61.8385 39.2283V41.5306C61.8385 42.3978 62.1966 43.2295 62.834 43.8427C63.4714 44.4559 64.3358 44.8004 65.2372 44.8004C66.1386 44.8004 67.0031 44.4559 67.6405 43.8427C68.2779 43.2295 68.6359 42.3978 68.6359 41.5306V39.2283C68.6359 38.361 68.2779 37.5293 67.6405 36.9161C67.0031 36.3029 66.1386 35.9584 65.2372 35.9584C64.3358 35.9584 63.4714 36.3029 62.834 36.9161C62.1966 37.5293 61.8385 38.361 61.8385 39.2283Z" fill="#5063BF"/>
</svg> 